<?xml version="1.0" encoding="utf-8"?>
<!-- Generator: Adobe Illustrator 28.1.0, SVG Export Plug-In . SVG Version: 6.00 Build 0)  -->
<svg version="1.1" id="Layer_1" xmlns="http://www.w3.org/2000/svg" xmlns:xlink="http://www.w3.org/1999/xlink" x="0px" y="0px"
	 viewBox="0 0 121.4 84.3" style="enable-background:new 0 0 121.4 84.3;" xml:space="preserve">
<style type="text/css">
	.st0{fill:#002E46;}
</style>
<path class="st0" d="M17.4,43.5c-0.5-0.7-0.8-1.6-0.8-2.5c-0.1,0.6-0.1,1.3,0.2,1.9c0.1,0.3,0.4,0.5,0.6,0.7c-0.3,0-0.7-0.1-0.9-0.3
	c-0.4-0.5-0.7-0.9-1.2-1.4c-0.1-0.1-0.2-0.2-0.4-0.3c-0.1-0.1-0.2-0.1-0.3-0.1c-0.2,0.1-0.5,0.1-0.7,0.2c0.7,1.7,1.5,3.5,2.2,5.2
	c0,0.1,0.1,0.1,0.1,0.1c0.4,0.2,0.8,0.5,1.2,0.7c-0.2,0.5-0.3,0.9-0.5,1.4c0.2,0,0.4-0.1,0.6-0.1c0.1-1.2,0.2-2.4,0.3-3.6
	c0-0.4,0-0.9-0.1-1.3C17.7,43.8,17.5,43.7,17.4,43.5"/>
<path class="st0" d="M18,36.3c0.2-0.2,0.3-0.5,0.2-0.8c-0.4,0.2-0.7,0.5-1,0.9C17.5,36.4,17.8,36.4,18,36.3"/>
<path class="st0" d="M16.1,47.7c-0.3,0.1-0.4,0.4-0.3,0.7c0.1,0.2,0.3,0.4,0.6,0.3c0.2-0.1,0.4-0.3,0.4-0.5
	C16.7,47.9,16.4,47.6,16.1,47.7"/>
<path class="st0" d="M19.3,35.6c0.2-0.1,0.4-0.3,0.4-0.5c-0.4,0.1-0.7,0.1-1.1,0.2C18.8,35.5,19.1,35.6,19.3,35.6"/>
<path class="st0" d="M26.3,46.3c-0.1,0.2-0.2,0.3-0.3,0.4c-0.4,0.6-0.9,1.2-1.3,1.8c-0.2,0.2-0.4,0.5-0.5,0.7
	c-0.1,0.1-0.2,0.1-0.3,0.2c0.4,0.1,0.7,0.2,1.1,0.3c0.4,0.1,0.8,0.2,1.3,0.3c-0.5,0-1,0-1.5-0.1c-1.7-0.2-3.5-0.4-5.2-0.3
	c-1,0.1-1.9,0.2-2.8,0.5c-0.6,0.2-1.3,0.5-1.8,1c0.1-0.5,0.3-1,0.7-1.3c0.2-0.2,0.5-0.3,0.7-0.5c-0.4-0.2-0.9-0.3-1.3-0.5
	c0.2-0.6,0.4-1.2,0.5-1.8c-0.4-1-0.9-2-1.3-3c-0.4,0.2-0.8,0.4-1.2,0.6c-0.1-0.3-0.3-0.6-0.4-0.8c0.1-0.1,0.3-0.1,0.4-0.2
	c0,0.1,0,0.2,0.1,0.3c0.1,0.2,0.5,0.2,0.6,0c0.1-0.2,0.1-0.4-0.1-0.5c0.1,0,0.3-0.1,0.3-0.3c0.1-0.2-0.1-0.5-0.4-0.5
	c-0.1,0-0.2,0.1-0.3,0.2c0-0.2-0.1-0.3-0.3-0.4c-0.2-0.1-0.5,0.1-0.5,0.4c0,0.2,0.1,0.3,0.2,0.4c-0.1,0.1-0.3,0.1-0.4,0.2
	c-0.1-0.3-0.2-0.6-0.4-0.8c-0.1-0.3,0-0.6,0.2-0.7c0.4-0.3,0.9-0.6,1.3-0.8c0.3-0.1,0.6-0.3,1-0.3c0.2,0,0.4,0,0.6,0.1
	c0.3,0.2,0.6,0.4,0.9,0.7c-0.2-0.5-0.2-1,0-1.4c0.1-0.4,0.2-0.9,0.2-1.3c0-0.1-0.1-0.1-0.1-0.1c-0.5-0.1-1.1-0.3-1.6-0.4
	c-0.2,0-0.3-0.1-0.4-0.3c-0.1-0.1-0.1-0.2,0-0.3c0-0.1,0.1-0.1,0.1-0.1c0.4-0.2,0.8-0.3,1.2-0.4c0.3-0.1,0.6-0.3,0.9-0.4
	c0-0.1,0-0.2,0-0.2c-0.1,0.1-0.3,0.2-0.5,0.2c-0.4,0-0.7-0.3-0.8-0.6c-0.1-0.4,0-0.8,0.1-1.1c0.1,0,0.2,0.1,0.2,0.2
	c-0.1,0.3-0.1,0.7,0.1,1c0.1,0.1,0.3,0.2,0.5,0.2c-0.1-0.1-0.3-0.3-0.3-0.5c-0.1-0.4,0.1-0.9,0.3-1.2c0-0.1,0.1-0.1,0.2,0
	c0.1,0.1,0,0.2,0,0.2c-0.2,0.3-0.3,0.6-0.2,1c0,0.2,0.2,0.2,0.4,0.3c0-0.4,0.1-0.7,0.3-1.1c-0.1-0.1-0.1-0.3-0.1-0.5
	c0-0.3,0.1-0.5,0.3-0.7c0.1-0.1,0.1-0.1,0.2-0.1c0.1,0.1,0.1,0.2,0,0.2c-0.2,0.2-0.2,0.5-0.2,0.7c0.2-0.3,0.5-0.6,0.8-0.8
	c-0.1-0.2-0.2-0.4-0.2-0.6c0-0.3,0.1-0.7,0.4-0.9c0.1,0,0.1,0.1,0.1,0.2c-0.1,0.1-0.2,0.2-0.2,0.3c-0.1,0.3,0,0.5,0.1,0.8
	c0.2-0.2,0.3-0.4,0.4-0.6c0.1-0.2,0.2-0.5,0.2-0.7c0-0.1,0.1-0.1,0.2-0.1c0,0.2,0,0.4,0,0.5c-0.1,0.3-0.1,0.6-0.3,0.8
	c-0.2,0.3-0.5,0.5-0.8,0.8c-0.2,0.2-0.4,0.4-0.5,0.6c-0.2,0.3-0.3,0.6-0.3,1c0.1,0,0.2-0.1,0.2-0.2c0.3-0.4,0.7-0.6,1.1-0.8
	c-0.1-0.1-0.2-0.3,0-0.4c0.1,0,0.2,0.2,0.2,0.3c0.5-0.1,1-0.2,1.4-0.3c0-0.1,0-0.3,0-0.4c0,0,0.1-0.1,0.1-0.1l0.1,0.1
	c0,0.1,0,0.3,0,0.4c0.1,0,0.2-0.1,0.3-0.1c-0.1-0.3-0.1-0.6,0.1-0.8c0.1-0.4,0.4-0.6,0.8-0.8c0.1,0,0.1,0,0.1,0
	c0,0.1-0.1,0.2-0.2,0.3c-0.4,0.2-0.5,0.7-0.5,1.1c0.2-0.2,0.4-0.4,0.6-0.6c0.1-0.1,0.2-0.3,0.4-0.2c0,0.2-0.1,0.4-0.3,0.5
	c-0.2,0.2-0.3,0.5-0.6,0.7c-0.2,0.2-0.5,0.3-0.8,0.4c-0.1,0.3-0.2,0.7-0.5,0.8c-0.3,0.2-0.7,0.1-1-0.1c0,0.4-0.1,0.7-0.5,0.9
	c-0.3,0.2-0.7,0.1-1,0l0,0.1c0.1,0,0.2,0.1,0.2,0.2c0.3,0,0.6,0,0.8,0.1c0.1,0,0.1,0.2,0.1,0.3c-0.1,0.2-0.3,0.2-0.5,0.3
	c0.2,0.4,0.4,0.7,0.6,1c0.2,0.3,0.4,0.5,0.6,0.8c0.2,0.3,0.3,0.6,0.6,0.8c0.3,0.3,0.6,0.4,0.9,0.5c0.5,0.1,1,0.1,1.5,0.1
	c0.6,0,1.3,0,1.9,0c0.3,0,0.5-0.1,0.8,0c0.6,0.1,1.1,0.5,1.3,1c0.2,0.5,0.3,1,0.2,1.5c0,0.3-0.1,0.7-0.3,1c-0.1-0.5-0.1-1-0.1-1.4
	c0,0.4-0.1,0.9-0.1,1.4c0,0.2,0,0.3,0.1,0.5c0.2,0.5,0.4,1.1,0.7,1.6C26.3,46.2,26.4,46.3,26.3,46.3 M19.6,29.4
	c-7,0-12.7,5.7-12.7,12.7s5.7,12.7,12.7,12.7s12.7-5.7,12.7-12.7S26.6,29.4,19.6,29.4"/>
<path class="st0" d="M24,44.7c-0.8-0.7-1.3-1.6-1.5-2.7c0,0.5,0.1,1,0.3,1.4c0.2,0.5,0.5,0.9,1,1.1c-0.1,0.2-0.2,0.4-0.2,0.7
	c0.1,0.3,0.3,0.6,0.5,0.9c-0.3,0.5-0.8,0.9-1.2,1.3c-0.5,0.4-0.9,0.9-1.4,1.3c-0.1,0.1-0.3,0.2-0.5,0.2l0,0.1l0,0
	c0.6,0.1,1.1,0.1,1.7,0.2c0.3,0,0.6,0.1,0.9,0.2c0.3-0.4,0.6-0.8,0.9-1.2c0.3-0.4,0.7-0.9,0.9-1.4c0.1-0.2,0-0.5-0.1-0.7
	C24.8,45.6,24.4,45.2,24,44.7"/>
<path class="st0" d="M22.8,46.6c0.1-0.1,0.2-0.3,0.1-0.4c-0.1-0.5-0.3-1-0.6-1.4c-0.2-0.3-0.5-0.4-0.8-0.5c-0.4,0-0.8,0.1-1.2,0.1
	c-0.5,0.1-1,0.1-1.5,0c-0.1,0.3-0.2,0.6-0.3,1c-0.3,1.2-0.5,2.4-0.7,3.6c0.8-0.1,1.7-0.1,2.5,0c0.4-0.4,0.9-0.8,1.3-1.2
	C22.2,47.4,22.5,47,22.8,46.6"/>
<path class="st0" d="M40.8,33.7c0,0.9-0.4,1.3-1.2,1.3c-0.8,0-1.2-0.5-1.2-1.4v-2.6h-0.7v2.6c0,1.2,0.7,2,1.9,2s1.9-0.8,1.9-2v-2.6
	h-0.7V33.7L40.8,33.7z"/>
<polygon class="st0" points="47.9,34.3 45.3,31.1 44.7,31.1 44.7,35.6 45.4,35.6 45.4,32.2 48,35.6 48.6,35.6 48.6,31.1 47.9,31.1 
	"/>
<rect x="52.1" y="31.1" class="st0" width="0.7" height="4.5"/>
<polygon class="st0" points="58,34.6 56.5,31.1 55.7,31.1 57.7,35.6 58.2,35.6 60.2,31.1 59.4,31.1 "/>
<polygon class="st0" points="63.6,33.6 66,33.6 66,33 63.6,33 63.6,31.7 66.2,31.7 66.2,31.1 62.9,31.1 62.9,35.6 66.3,35.6 
	66.3,34.9 63.6,34.9 "/>
<path class="st0" d="M72.2,32.5L72.2,32.5c0,0.5-0.4,0.8-1,0.8H70v-1.5h1.2C71.9,31.7,72.2,32,72.2,32.5 M73,32.5L73,32.5
	c0-0.4-0.1-0.7-0.4-0.9c-0.3-0.3-0.8-0.5-1.3-0.5h-2v4.5H70v-1.7h1.1l1.3,1.7h0.9l-1.4-1.8C72.5,33.6,73,33.1,73,32.5"/>
<path class="st0" d="M77.7,33c-1-0.2-1.1-0.5-1.1-0.7c0-0.3,0.3-0.6,0.8-0.6c0.4,0,0.8,0.1,1.2,0.4l0.1,0.1l0.4-0.5l-0.1-0.1
	c-0.5-0.4-1-0.6-1.6-0.6c-0.9,0-1.5,0.5-1.5,1.3c0,0.8,0.6,1.1,1.5,1.3c1,0.2,1,0.4,1,0.7c0,0.4-0.3,0.6-0.9,0.6
	c-0.5,0-1-0.2-1.4-0.6l-0.1-0.1l-0.4,0.5l0.1,0.1c0.5,0.5,1.1,0.7,1.8,0.7c0.9,0,1.6-0.5,1.6-1.3C79.2,33.6,78.8,33.2,77.7,33"/>
<rect x="82.3" y="31.1" class="st0" width="0.7" height="4.5"/>
<polygon class="st0" points="86.1,31.7 87.5,31.7 87.5,35.6 88.2,35.6 88.2,31.7 89.7,31.7 89.7,31.1 86.1,31.1 "/>
<polygon class="st0" points="94.4,33.1 93,31.1 92.1,31.1 94,33.8 94,35.6 94.7,35.6 94.7,33.8 96.6,31.1 95.8,31.1 "/>
<path class="st0" d="M107.2,33.3L107.2,33.3c0,1-0.7,1.7-1.6,1.7c-0.9,0-1.6-0.7-1.6-1.7c0-1,0.7-1.7,1.6-1.7S107.2,32.4,107.2,33.3
	 M107.9,33.3c0-1.3-1-2.3-2.3-2.3c-1.3,0-2.3,1-2.3,2.4c0,1.3,1,2.3,2.3,2.3s2.3-1,2.3-2.3V33.3L107.9,33.3L107.9,33.3L107.9,33.3z"
	/>
<polygon class="st0" points="114.3,31.7 114.3,31.1 111,31.1 111,35.6 111.7,35.6 111.7,33.7 114.1,33.7 114.1,33 111.7,33 
	111.7,31.7 "/>
<path class="st0" d="M58.5,47.4c0,2.2-1.1,3.3-2.9,3.3s-2.9-1.2-2.9-3.4v-7.9h-3v7.9c0,4.1,2.2,6.2,5.9,6.2c3.6,0,5.9-2.1,5.9-6.3
	v-7.8h-3L58.5,47.4L58.5,47.4z"/>
<polygon class="st0" points="111.2,39.4 107.9,45 104.6,39.4 101.2,39.4 106.4,47.8 106.4,53.3 109.3,53.3 109.3,47.8 114.6,39.4 
	"/>
<path class="st0" d="M71.8,44.2c0,1.2-0.8,2-2.3,2h-3v-4h3C70.9,42.2,71.8,42.8,71.8,44.2L71.8,44.2z M74.8,44L74.8,44
	c0-1.3-0.4-2.4-1.2-3.2c-0.9-0.9-2.2-1.4-3.9-1.4h-6.2v13.9h3v-4.4h2.3l2.9,4.4h3.5l-3.3-5C73.7,47.7,74.8,46.3,74.8,44"/>
<path class="st0" d="M85.4,44.2c0,1.2-0.8,2-2.3,2h-3v-4h3C84.5,42.2,85.4,42.8,85.4,44.2L85.4,44.2z M88.4,44L88.4,44
	c0-1.3-0.4-2.4-1.2-3.2c-0.9-0.9-2.2-1.4-3.9-1.4h-6.2v13.9h3v-4.4h2.3l2.9,4.4h3.5l-3.3-5C87.3,47.7,88.4,46.3,88.4,44"/>
<path class="st0" d="M43.7,45c-2.3-0.6-2.9-0.9-2.9-1.8v0c0-0.7,0.6-1.2,1.7-1.2c1.1,0,2.3,0.5,3.5,1.3l0.1-0.1l1.3-2.3
	c-1.3-1-3-1.6-4.9-1.6c-2.8,0-4.8,1.7-4.8,4.2v0c0,2.8,1.8,3.5,4.5,4.3c2.3,0.6,2.7,1,2.7,1.8v0c0,0.8-0.7,1.3-2,1.3
	c-1.5,0-2.8-0.6-4-1.7l-1.4,2.4c1.6,1.3,3.5,1.9,5.4,1.9c2.9,0,5-1.6,5-4.3v0C48,46.7,46.5,45.7,43.7,45"/>
<polygon class="st0" points="90.6,53.3 100.1,53.3 100.1,50.6 93.6,50.6 93.6,47.8 99.1,47.8 99.1,44.9 93.6,44.9 93.6,42.1 
	100.1,42.1 100.1,39.4 90.6,39.4 "/>
</svg>
